<svg xmlns="http://www.w3.org/2000/svg">

  <!-- streetcar -->
  <symbol id="streetcar" viewBox="0 0 24 24">
    <path d="M20,4.5c-0.4-0.7-2.8-1.3-5-1.5V2.9C15,2.4,14.6,2,14.1,2H13V0h-1v2h-1.1C10.4,2,10,2.4,10,2.9V3C7.8,3.2,5.4,3.8,5,4.5
      L4,11v10l1,2h1v1h1v-1h11v1h1v-1h1l1-2V11L20,4.5z M19.1,7.6l0.4,4.7c0,0.4-0.3,0.7-0.7,0.7H13V7h5.4C18.7,7,19,7.3,19.1,7.6z
      M19,16.5c0,0.3-0.2,0.5-0.5,0.5S18,16.8,18,16.5c0-0.3,0.2-0.5,0.5-0.5S19,16.2,19,16.5z M12.5,15c0.8,0,1.5,0.7,1.5,1.5
      c0,0.8-0.7,1.5-1.5,1.5S11,17.3,11,16.5C11,15.7,11.7,15,12.5,15z M7,5.3C7,5.1,7.1,5,7.3,5h10.5C17.9,5,18,5.1,18,5.3v0.5
      C18,5.9,17.9,6,17.7,6H7.3C7.1,6,7,5.9,7,5.7V5.3z M5.9,7.6C6,7.3,6.3,7,6.6,7H12v6H6c-0.4,0-0.7-0.3-0.7-0.7L5.9,7.6z M6.5,16
      C6.8,16,7,16.2,7,16.5C7,16.8,6.8,17,6.5,17S6,16.8,6,16.5C6,16.2,6.2,16,6.5,16z M19.5,22h-14L5,21h15L19.5,22z"/>
  </symbol>
  
  <!-- car -->
  <symbol id="car" viewBox="0 0 24 24">
    <path d="M21.5,10l-1.8-5.2c-0.4-1.2-1.5-1.9-2.7-1.9H7c-1.2,0-2.3,0.8-2.7,1.9L2.5,10C1.1,10.2,0,11.4,0,12.8V19h1v1.5
      C1,21.3,1.7,22,2.5,22h1C4.3,22,5,21.3,5,20.5V19h4v1h6v-1h4v1.5c0,0.8,0.7,1.5,1.5,1.5h1c0.8,0,1.5-0.7,1.5-1.5V19h1v-6.2
      C24,11.4,22.9,10.2,21.5,10z M3,15.5c-0.8,0-1.5-0.7-1.5-1.5s0.7-1.5,1.5-1.5s1.5,0.7,1.5,1.5S3.8,15.5,3,15.5z M14.5,18h-1v-6h1
      V18z M12.5,18h-1v-6h1V18z M10.5,18h-1v-6h1V18z M8.5,18h-1v-4c0-0.7,0.4-1.4,1-1.7V18z M16.5,18h-1v-5.7c0.6,0.3,1,1,1,1.7V18z
       M14.1,10c0.2-0.6,0.8-1,1.4-1s1.2,0.4,1.4,1H14.1z M17.9,10c-0.2-1.1-1.2-2-2.4-2s-2.2,0.8-2.4,2H4.6l1.6-4.5
      C6.3,5.1,6.7,4.9,7,4.9H17c0.4,0,0.7,0.2,0.8,0.6l1.6,4.5H17.9z M21,15.5c-0.8,0-1.5-0.7-1.5-1.5s0.7-1.5,1.5-1.5s1.5,0.7,1.5,1.5
      S21.8,15.5,21,15.5z"/>
  </symbol>  
  
  <!-- bike -->
  <symbol id="bike" viewBox="0 0 24 24">
    <path d="M5,12c-2.8,0-5,2.2-5,5c0,2.8,2.2,5,5,5c2.8,0,5-2.2,5-5C10,14.2,7.8,12,5,12z M5,21c-2.2,0-4-1.8-4-4s1.8-4,4-4
      s4,1.8,4,4S7.2,21,5,21z"/>
    <path d="M19,12c-2.8,0-5,2.2-5,5c0,2.8,2.2,5,5,5c2.8,0,5-2.2,5-5C24,14.2,21.8,12,19,12z M19,21c-2.2,0-4-1.8-4-4s1.8-4,4-4
      s4,1.8,4,4S21.2,21,19,21z"/>
    <path d="M14,10h2c0.6,0,1-0.4,1-1s-0.4-1-1-1h-1.5l-1.7-2.6c-0.2-0.3-0.6-0.5-1.1-0.5S10.8,5,10.4,5.4l-3,3
      C7.1,8.7,6.9,9.1,6.9,9.8c0,0.5,0.2,0.9,0.5,1.1l3.6,2.7V18c0,0.6,0.4,1,1,1s1-0.4,1-1v-5c0,0,0,0,0-0.1c0-0.1,0-0.1,0-0.2
      c0-0.1,0-0.1-0.1-0.2c0-0.1-0.1-0.1-0.1-0.2c0-0.1-0.1-0.1-0.1-0.2c0,0,0,0,0-0.1l-2.7-2L12.1,8l1,1.6c0,0,0.1,0.1,0.1,0.1
      c0,0,0,0,0,0c0.1,0.1,0.2,0.1,0.3,0.2c0,0,0,0,0.1,0C13.8,10,13.9,10,14,10C14,10,14,10,14,10z"/>
    <circle cx="14.2" cy="3.8" r="1.8"/>
  </symbol>  
  
  <!-- walk -->
  <symbol id="walk" viewBox="0 0 24 24">
    <circle cx="11" cy="2" r="2"/>
    <path d="M17.2,12.6c0.4,0.4,1,0.5,1.4,0.1c0.4-0.4,0.5-1,0.1-1.4l-5-6C13.6,5.1,13.3,5,13,5H9C8.7,5,8.4,5.2,8.2,5.4l-2,3
      C6.1,8.6,6,8.8,6,9v4c0,0.6,0.4,1,1,1s1-0.4,1-1V9.3l1-1.5V13c0,0,0,0,0,0.1c0,0.2,0.1,0.3,0.2,0.5l7,10c0.2,0.3,0.5,0.4,0.8,0.4
      c0.2,0,0.4-0.1,0.6-0.2c0.5-0.3,0.6-0.9,0.2-1.4L13,15.5v-8L17.2,12.6z"/>
    <path d="M6.2,22.4c-0.3,0.5-0.2,1.1,0.3,1.4C6.6,23.9,6.8,24,7,24c0.3,0,0.6-0.2,0.8-0.4l3.5-5.1l-1.2-1.7L6.2,22.4z"/>
  </symbol>
  
  <!-- calendar -->
  <symbol id="calendar" viewBox="0 0 24 24">
    <path d="M21,3h-2V2.5C19,1.1,17.9,0,16.5,0S14,1.1,14,2.5V3h-4V2.5C10,1.1,8.9,0,7.5,0S5,1.1,5,2.5V3H3C1.9,3,1,3.9,1,5v17
      c0,1.1,0.9,2,2,2h18c1.1,0,2-0.9,2-2V5C23,3.9,22.1,3,21,3z M15.5,2.5c0-0.5,0.5-1,1-1c0.6,0,1,0.5,1,1v3c0,0.6-0.5,1-1,1
      c-0.5,0-1-0.5-1-1V2.5z M6.5,2.5c0-0.5,0.5-1,1-1c0.6,0,1,0.5,1,1v3c0,0.6-0.5,1-1,1c-0.5,0-1-0.5-1-1V2.5z M21,22H3V8h18V22z"/>
  </symbol>

  <!-- bus -->
  <symbol id="bus" viewBox="0 0 24 24">
    <path d="M21,2.6c0-0.4-0.3-0.7-0.6-0.8C19.2,1.2,15.9,0,12.1,0C8.3,0,4.9,1.2,3.6,1.8C3.2,1.9,3,2.2,3,2.6L2,13v7c0,0.6,0.4,1,1,1
      v2.5C3,23.8,3.2,24,3.5,24h2C5.8,24,6,23.8,6,23.5V21h12v2.5c0,0.3,0.2,0.5,0.5,0.5h2c0.3,0,0.5-0.2,0.5-0.5V21c0.6,0,1-0.4,1-1v-7
      L21,2.6z M7.5,2h9C16.8,2,17,2.2,17,2.5C17,2.8,16.8,3,16.5,3h-9C7.2,3,7,2.8,7,2.5C7,2.2,7.2,2,7.5,2z M4.4,4.9
      C4.5,4.4,4.9,4,5.4,4h13.2c0.5,0,0.9,0.4,1,0.9l0.8,6c0.1,0.6-0.4,1.1-1,1.1h-0.4c-0.2-1.1-1.2-2-2.4-2s-2.2,0.9-2.4,2H4.6
      c-0.6,0-1.1-0.5-1-1.1L4.4,4.9z M17.9,12h-2.8c0.2-0.6,0.8-1,1.4-1S17.7,11.4,17.9,12z M4.5,18C3.7,18,3,17.3,3,16.5S3.7,15,4.5,15
      S6,15.7,6,16.5S5.3,18,4.5,18z M19.5,18c-0.8,0-1.5-0.7-1.5-1.5s0.7-1.5,1.5-1.5s1.5,0.7,1.5,1.5S20.3,18,19.5,18z"/>
  </symbol>

  <!-- subway -->
  <symbol id="subway" viewBox="0 0 24 24">
    <path d="M19,18l1,1h3V4c0-0.6-0.3-1.2-0.8-1.6l-2.7-2C19.2,0.1,18.8,0,18.3,0H5.7C5.2,0,4.8,0.1,4.5,0.4l-2.6,2C1.3,2.8,1,3.4,1,4
      v15h3l1-1h2v3H6v-2H5.5L5,19.5V21H4v-1H2.5v2H5v1.5L5.5,24H6v-2h12v2h0.5l0.5-0.5V22h2.5v-2H20v1h-1v-1.5L18.5,19H18v2h-1v-3H19z
       M12,12c1.9,0,3.3-0.5,3.3-0.5c0.3-0.1,0.5,0.1,0.6,0.3c0.1,0.3-0.1,0.5-0.3,0.6c-0.1,0-1.6,0.5-3.7,0.5s-3.6-0.5-3.7-0.5
      c-0.3-0.1-0.4-0.4-0.3-0.6c0.1-0.3,0.4-0.4,0.6-0.3C8.7,11.5,10.1,12,12,12z M10,10V6c0-0.6,0.4-1,1-1h2c0.6,0,1,0.4,1,1v4
      c0,0.6-0.4,1-1,1h-2C10.4,11,10,10.6,10,10z M8,13.8c0.1-0.3,0.4-0.4,0.6-0.3c0,0,1.5,0.5,3.3,0.5s3.3-0.5,3.3-0.5
      c0.3-0.1,0.5,0.1,0.6,0.3c0.1,0.3-0.1,0.5-0.3,0.6c-0.1,0-1.6,0.5-3.7,0.5s-3.6-0.5-3.7-0.5C8.1,14.4,7.9,14.1,8,13.8z M8,15.8
      c0.1-0.3,0.4-0.4,0.6-0.3c0,0,1.5,0.5,3.3,0.5s3.3-0.5,3.3-0.5c0.3-0.1,0.5,0.1,0.6,0.3c0.1,0.3-0.1,0.5-0.3,0.6
      c-0.1,0-1.6,0.5-3.7,0.5s-3.6-0.5-3.7-0.5C8.1,16.4,7.9,16.1,8,15.8z M8,17.8c0.1-0.3,0.4-0.4,0.6-0.3c0,0,1.5,0.5,3.3,0.5
      s3.3-0.5,3.3-0.5c0.3-0.1,0.5,0.1,0.6,0.3c0.1,0.3-0.1,0.5-0.3,0.6c-0.1,0-1.6,0.5-3.7,0.5s-3.6-0.5-3.7-0.5
      C8.1,18.4,7.9,18.1,8,17.8z M21,6v4c0,0.6-0.4,1-1,1h-4c-0.6,0-1-0.4-1-1V6c0-0.6,0.4-1,1-1h4C20.6,5,21,5.4,21,6z M19,2
      c0.6,0,1,0.4,1,1c0,0.6-0.4,1-1,1s-1-0.4-1-1C18,2.4,18.4,2,19,2z M9,1h6c0.6,0,1,0.4,1,1c0,0.6-0.4,1-1,1H9C8.4,3,8,2.6,8,2
      C8,1.4,8.4,1,9,1z M5,2c0.6,0,1,0.4,1,1c0,0.6-0.4,1-1,1S4,3.6,4,3C4,2.4,4.4,2,5,2z M4,11c-0.6,0-1-0.4-1-1V6c0-0.6,0.4-1,1-1h4
      c0.6,0,1,0.4,1,1v4c0,0.6-0.4,1-1,1H4z"/>
  </symbol>

  <!-- train -->
  <symbol id="train" viewBox="0 0 24 24">
    <path d="M10.8,1.5C10.9,1.3,11,1.2,11,1c0-0.5-0.4-1-1-1c-0.5,0-1,0.4-1,1c0,0.2,0.1,0.4,0.2,0.5H10.8z"/>
    <path d="M19.6,2.8c-0.1-1-1-1.8-2-1.8H6.3c-1,0-1.9,0.8-2,1.8L3,12l0,4.5c0,1,0.8,4.5,2,4.5h14c1.2,0,2-3.5,2-4.5l0-4.5L19.6,2.8z
       M8,2h8c0.3,0,0.5,0.2,0.5,0.5C16.5,2.8,16.3,3,16,3H8C7.7,3,7.5,2.8,7.5,2.5C7.5,2.2,7.7,2,8,2z M5,4.9C5,4.4,5.5,4,6,4h12
      c0.5,0,1,0.4,1,0.9l0.5,5c0,0.6-0.4,1.1-1,1.1h-13c-0.6,0-1-0.5-1-1.1L5,4.9z M12,18c-1.1,0-2-0.9-2-2c0-1.1,0.9-2,2-2s2,0.9,2,2
      C14,17.1,13.1,18,12,18z M7.8,12.5H4.2c-0.1,0-0.2-0.1-0.2-0.2l0,0C4,12.1,4.1,12,4.2,12h3.5C7.9,12,8,12.1,8,12.2l0,0
      C8,12.4,7.9,12.5,7.8,12.5z M7.8,13.5H4.2c-0.1,0-0.2-0.1-0.2-0.2l0,0C4,13.1,4.1,13,4.2,13h3.5C7.9,13,8,13.1,8,13.2l0,0
      C8,13.4,7.9,13.5,7.8,13.5z M19.8,12.5h-3.5c-0.1,0-0.2-0.1-0.2-0.2l0,0c0-0.1,0.1-0.2,0.2-0.2h3.5c0.1,0,0.2,0.1,0.2,0.2l0,0
      C20,12.4,19.9,12.5,19.8,12.5z M19.8,13.5h-3.5c-0.1,0-0.2-0.1-0.2-0.2l0,0c0-0.1,0.1-0.2,0.2-0.2h3.5c0.1,0,0.2,0.1,0.2,0.2l0,0
      C20,13.4,19.9,13.5,19.8,13.5z"/>
    <polygon points="18.5,20.5 16.6,20.5 17.7,22 6.5,22 7.5,20.5 5.6,20.5 3.2,24 5.1,24 5.8,23 18.4,23 19.1,24 21,24  "/>
    <path d="M14.8,1.5c0.1-0.2,0.2-0.3,0.2-0.5c0-0.5-0.4-1-1-1c-0.5,0-1,0.4-1,1c0,0.2,0.1,0.4,0.2,0.5H14.8z"/>
  </symbol>

</svg>